<?xml version="1.0" encoding="UTF-8" standalone="no" ?>
<svg
   viewBox="0 0 60 60"
   version="1.1"
   id="logo"
   xmlns="http://www.w3.org/2000/svg"
   xmlns:svg="http://www.w3.org/2000/svg">
  <g>
   <defs>
      <mask id="mask">
         <circle cx="30" cy="30" r="29.867708" stroke-width="0.264583" stroke="#000000" fill="#ffffff" />
      </mask>
   </defs>
   <circle id="sun" cx="30" cy="30" r="29.867708" stroke="none" fill="#ffc000" />
   <path
      d="m 45.146679,23.673002 -1.364063,4.56582 H 43.08164 q 0.09473,-0.303125 0.132617,-0.454687 0.208398,-0.682031 0.208398,-1.136719 0,-0.64414 -0.549414,-0.814648 -0.549414,-0.170508 -2.633398,-0.170508 h -2.917578 l -0.265234,0.814648 q -1.610352,5.153125 -3.580664,8.601172 -1.951368,3.448047 -4.906836,6.289844 -3.012305,2.936523 -6.839258,4.584765 -3.826953,1.648242 -7.59707,1.648242 -4.2626954,0 -7.6728516,-1.81875 Q 3.4101562,44.17183 1.7050781,41.235306 0,38.298783 0,34.699174 0,29.9439 3.0123046,27.083158 q 3.0123047,-2.860742 8.0138674,-2.860742 5.607812,0 11.973437,5.17207 2.121875,1.724024 5.873047,5.569922 l 0.587304,0.587305 q 0.947266,-1.610352 0.947266,-3.391211 0,-2.766016 -2.406055,-4.584766 -2.406054,-1.81875 -6.327734,-2.027148 0.473633,-0.814648 0.738867,-1.81875 l 13.432227,-0.05684 q 0.151562,-0.492578 0.227343,-0.738867 0.833594,-2.879687 1.364063,-4.130078 0.530469,-1.269336 1.364062,-2.330273 1.553516,-2.008204 4.262695,-3.808008 2.766016,-1.837695 4.698438,-1.837695 0.378906,0 0.966211,0.113671 -0.246289,1.439844 -1.117774,4.395313 l -0.132617,0.473633 h -0.700976 q 0.341015,-1.2125 0.341015,-1.705078 0,-1.2125 -1.307226,-1.2125 -2.027149,0 -3.940625,1.515625 -1.004102,0.814648 -1.572461,1.989257 -0.568359,1.155664 -1.53457,4.376367 l -0.719922,2.443946 -0.132617,0.454687 z m -9.832617,1.989258 -8.658008,-0.05684 q 2.008203,0.909375 3.258594,2.671289 1.25039,1.742969 1.25039,3.656445 0,2.974414 -2.216601,6.592969 -5.380469,-6.365625 -10.457812,-9.756836 -5.077344,-3.391211 -9.2263674,-3.391211 -3.5996093,0 -5.9677733,2.330274 -2.34921869,2.330273 -2.34921869,5.891992 0,5.418359 4.18691399,8.904296 4.2058593,3.504883 10.7041014,3.504883 7.218164,0 12.219726,-5.228906 5.020508,-5.228906 7.256055,-15.118359 z"
      style="stroke:#000000;stroke-width:1.058332" mask="url(#mask)" 
      id="f" />
   <path
      d="m 56.134961,34.680228 0.341016,0.492579 q -1.989258,1.496679 -5.437305,2.349218 0.09473,-1.913476 2.254493,-6.592968 -2.443946,2.879687 -5.039453,4.774218 -2.576563,1.894532 -4.092188,1.894532 -1.326172,0 -1.326172,-1.686133 0,-2.860742 2.557617,-6.176172 2.557618,-3.334375 6.422461,-5.475195 4.357422,-2.443945 8.676953,-2.443945 0.60625,0 0.60625,0.454687 0,0.378906 -0.568359,1.439844 -1.288281,-0.227344 -2.500781,-0.227344 -5.778321,0 -9.946289,4.490039 -3.069141,3.296484 -3.069141,6.536133 0,1.515625 1.117774,1.515625 0.947265,0 2.728125,-1.629297 1.780859,-1.648242 3.182812,-3.808008 1.932422,-2.993359 2.633398,-6.214062 0.814649,0.492578 0.814649,1.81875 0,1.837695 -1.856641,4.224804 0.909375,-0.07578 2.254492,-0.530468 l -0.151562,0.32207 q -1.799805,4.035351 -1.799805,4.717383 0,0.549414 0.511524,0.511523 0.473632,-0.03789 1.686132,-0.757813 z"
      style="stroke:#000000;stroke-width:1.058332" mask="url(#mask)" 
      id="a" />
  </g>
</svg>
